<svg id="visual" viewBox="0 0 1500 900" width="1500" height="900" xmlns="http://www.w3.org/2000/svg" xmlns:xlink="http://www.w3.org/1999/xlink" version="1.1"><rect x="0" y="0" width="1500" height="900" fill="#C5D7D9"></rect><path d="M0 27L31.3 30.3C62.7 33.7 125.3 40.3 187.8 44.7C250.3 49 312.7 51 375.2 49.5C437.7 48 500.3 43 562.8 38C625.3 33 687.7 28 750.2 31.2C812.7 34.3 875.3 45.7 937.8 45.7C1000.3 45.7 1062.7 34.3 1125.2 34.7C1187.7 35 1250.3 47 1312.8 52.2C1375.3 57.3 1437.7 55.7 1468.8 54.8L1500 54L1500 0L1468.8 0C1437.7 0 1375.3 0 1312.8 0C1250.3 0 1187.7 0 1125.2 0C1062.7 0 1000.3 0 937.8 0C875.3 0 812.7 0 750.2 0C687.7 0 625.3 0 562.8 0C500.3 0 437.7 0 375.2 0C312.7 0 250.3 0 187.8 0C125.3 0 62.7 0 31.3 0L0 0Z" fill="#F0F0F0" stroke-linecap="round" stroke-linejoin="miter"></path></svg>